<svg width="116" height="105" viewBox="0 0 116 105" fill="none" xmlns="http://www.w3.org/2000/svg">
<path d="M111.705 46.3787C107.031 47.65 96.1402 45.203 96.1402 45.203L99.5 42L101.497 38.6467C101.497 38.6467 116.378 45.1074 111.705 46.3787Z" fill="#5AC5E6" stroke="#5AC5E6" stroke-width="5"/>
<path d="M16.5 76C34.0108 72.069 50.5633 50.5952 50.5633 50.5952C50.5633 50.5952 40.594 45.5981 30.4867 40.5552C41.1477 7.17296 61.1316 7.66287 73 8.99999C95.1164 11.4917 100.694 37.7334 100 41.5C99.3058 45.2666 91.4601 45.1189 91.4601 45.1189C131.911 93.3106 62.6018 128.025 16.5 76Z" fill="#5AC5E6" stroke="#5AC5E6" stroke-width="5"/>
<path d="M73.857 63.0876C56.6212 69.0208 68.7867 69.9721 77.0239 69.7061C49.2183 76.1747 51.6888 78.3295 78.4281 80.3528" stroke="white" stroke-width="5"/>
<circle cx="85" cy="32" r="5" fill="white"/>
</svg>
