<svg width="125" height="114" viewBox="0 0 125 114" fill="none" xmlns="http://www.w3.org/2000/svg">
<path d="M4 113L35.5 90H108.5L123 113H5.5H4Z" fill="white"/>
<path d="M123 113L108.5 90H35.5L4 113H5.5M123 113H5.5M123 113L63 101.5L5.5 113" stroke="#5AC5E6" stroke-width="2"/>
<path d="M17.5 76C35.0108 72.069 54.3127 53.3048 51.5633 50.5952C45.6703 47.6553 41.594 45.5981 31.4867 40.5553C42.1477 7.17298 62.1316 7.66289 74 9C96.1164 11.4917 101.694 37.7334 101 41.5C100.306 45.2666 92.4601 45.1189 92.4601 45.1189C132.911 93.3106 63.6018 128.025 17.5 76Z" fill="white" stroke="#5AC5E6" stroke-width="2"/>
<path d="M112.705 46.3787C108.031 47.65 97.1402 45.203 97.1402 45.203L103.181 41.8914L102.497 38.6467C102.497 38.6467 117.378 45.1074 112.705 46.3787Z" fill="#5AC5E6" stroke="#5AC5E6" stroke-width="2"/>
<path d="M74.857 64.0876C57.6213 70.0208 69.7867 70.9721 78.0239 70.7061C50.2184 77.1747 52.6888 79.3295 79.4281 81.3528" stroke="#5AC5E6" stroke-width="2"/>
</svg>
